<svg width="339" height="215" xmlns="http://www.w3.org/2000/svg" xmlns:xlink="http://www.w3.org/1999/xlink" xml:space="preserve" overflow="hidden"><defs><clipPath id="clip0"><rect x="3057" y="417" width="339" height="215"/></clipPath><clipPath id="clip1"><rect x="3057" y="417" width="339" height="215"/></clipPath></defs><g clip-path="url(#clip0)" transform="translate(-3057 -417)"><g clip-path="url(#clip1)"><path d="M3395.33 525.317C3400.8 558.744 3371.78 577.59 3342.39 579.757 3323.79 618.24 3257.69 644.205 3200.55 616.314 3176.14 620.029 3162.74 613.907 3152.42 602.214 3173.32 575.321 3236.61 526.865 3314 551.866 3355.25 565.21 3366.01 533.846 3355.59 522.084 3316.68 477.858 3228.71 517.682 3225.54 520.984 3260.02 468.056 3383.58 453.2 3395.33 525.317ZM3276.94 464.549C3277.14 464.549 3248.85 454.507 3209.28 471.599 3207.69 471.004 3206.13 470.327 3204.61 469.57 3242.66 444.361 3276.01 433.528 3304.54 437.724 3287.35 417.812 3204.26 403.333 3156.72 450.861 3097.94 439.306 3056.82 489.069 3059.09 534.637 3061.36 580.204 3111.14 608.473 3139.39 600.804 3140.08 600.719 3140.77 600.719 3141.46 600.804 3147.75 570.747 3173.29 500.762 3276.94 464.549Z" fill="#236BF5" fill-rule="evenodd" fill-opacity="1"/></g></g></svg>