<svg width="180" height="38" viewBox="0 0 180 38" fill="none" xmlns="http://www.w3.org/2000/svg">
<path d="M60.0172 18.8739C60.9938 24.806 55.8133 28.1466 50.5672 28.5319C47.2281 35.3623 35.451 39.9729 25.2535 35.0014C20.8887 35.6608 18.4961 34.5753 16.6493 32.5021C20.3812 27.726 31.6781 19.1317 45.4794 23.5686C52.8451 25.9349 54.7548 20.3718 52.9079 18.285C45.9568 10.4315 30.265 17.5007 29.6976 18.0896C35.863 8.70832 57.9166 6.07603 60.0172 18.8739ZM38.8829 8.09231C38.9211 8.07874 33.8715 6.30398 26.8085 9.3379C26.5237 9.23416 26.245 9.11457 25.9738 8.97969C32.7666 4.49393 38.722 2.5862 43.8234 3.32704C40.7407 -0.200774 25.9274 -2.79507 17.4404 5.66083C6.94827 3.60655 -0.390201 12.4451 0.0271916 20.5265C0.444584 28.6079 9.30259 33.6337 14.3495 32.2714C14.4709 32.2565 14.5937 32.2565 14.7151 32.2714C15.8308 26.9336 20.3894 14.5156 38.8829 8.09231ZM81.1351 15.4736L82.0763 11.3623H66.2781L65.9207 12.9553C65.5088 14.3637 66.6273 15.3596 67.8303 15.327H75.1497L62.1751 26.7246L61.2994 30.5455H78.036L78.999 26.3691H68.4142L81.1351 15.4736ZM91.6763 18.7924C90.9343 18.6052 86.7658 17.9783 87.0386 16.5536C87.3305 14.9526 89.3002 14.8006 90.2577 14.8277C92.2301 14.8847 92.8521 15.7477 92.9558 16.0516C93.2286 16.8657 93.8615 17.2782 94.7808 17.2782H97.8963C98.2373 15.3569 98.33 10.9336 91.0925 10.9336C88.7682 10.9336 85.6719 11.5116 83.6231 13.8616C82.5319 15.1208 80.6358 18.2443 82.57 20.5971C83.5822 21.7829 86.2202 22.711 89.0519 23.2619C90.8824 23.6174 91.8509 24.3474 91.649 25.2049C91.5263 25.7829 90.7979 27.0855 88.1025 27.0828C86.8967 27.0828 84.2833 26.8956 84.7825 24.2009H79.8556C79.2773 26.6432 79.0645 30.9037 86.5776 30.9037C89.4748 30.9037 95.3728 30.5401 96.9087 24.4125C98.0163 20.0028 93.0185 19.1289 91.6763 18.7924ZM109.092 25.5767C108.667 25.9667 108.169 26.2696 107.626 26.4679C107.083 26.6663 106.506 26.7563 105.928 26.7327C102.207 26.7653 102.627 23.1045 103.134 20.8929C103.642 18.6812 104.839 15.1181 108.377 15.1262C110.885 15.1262 111.174 16.7409 111.302 17.2158H116.373C116.193 11.8915 112.09 10.8739 109.19 10.9444C101.241 11.1398 98.9411 17.7504 98.2291 20.8223C96.153 29.7938 101.923 30.9146 104.684 30.9146C106.951 30.9146 111.905 30.3718 114.816 24.6432H111.206C110.151 24.5943 109.671 25.0584 109.092 25.555V25.5767ZM129.801 27.4193C128.339 29.1358 126.306 30.2731 124.072 30.6242C119.666 31.3487 113.61 31.1669 115.135 24.8603C115.623 22.844 116.379 21.5279 117.898 20.5346C120.444 18.8711 123.826 18.635 124.92 18.5156C125.294 18.4722 128.066 18.266 128.541 16.635C129.004 15.0502 126.462 14.92 125.75 14.9118C123.567 14.8847 122.828 15.7531 122.476 16.2687H117.62C119.582 11.1344 124.986 10.9363 126.459 10.9363C128.096 10.9363 134.66 10.9363 133.407 16.3474C131.481 24.5998 131.41 25.422 129.801 27.4085V27.4193ZM127.618 20.8929C126.838 21.3189 124.89 21.7368 124.579 21.8264C123.567 22.133 121.669 22.2497 120.733 23.1235C119.939 23.8698 118.55 26.9526 121.868 27.0177C123.93 27.0584 126.505 25.9051 127.237 22.5563C127.411 21.7884 127.629 20.882 127.629 20.882L127.618 20.8929ZM140.124 5.74495H137.505L131.814 30.5455H136.886L142.034 8.12487C142.241 7.41659 142.096 5.81008 140.124 5.74495ZM153.27 24.635H156.896C155.756 26.9254 152.804 30.9118 146.759 30.9064C139.044 30.9064 139.518 24.0625 140.307 20.8142C142.489 11.7884 148.567 10.9363 151.271 10.9363C154.877 10.9363 160.527 12.4207 157.66 22.2524H145.111C144.805 23.5577 144.543 26.7626 148.003 26.7246C149.822 26.7029 150.504 26.0489 150.668 25.9648C151.134 25.7232 151.582 24.6622 153.26 24.6323L153.27 24.635ZM145.853 19.0095H153.243C153.876 15.4817 151.683 15.1154 150.441 15.1154C149.38 15.1154 146.854 15.4953 145.853 19.0095ZM164.131 13.4573C160.734 15.7612 159.613 19.4654 159.22 21.2456C158.909 22.6432 157.084 30.5428 157.084 30.5428H162.161C162.161 30.5428 164.084 21.8589 164.423 20.6676C164.824 19.2782 166.13 15.5116 171.188 15.6663L172.361 11.3623C168.269 11.2293 165.568 12.4804 164.131 13.4573ZM172.986 7.62012L173.114 7.02039H175.842L175.714 7.62012H174.732L174.186 10.2768H173.461L174.02 7.62012H172.986ZM177.476 7.02039L177.727 9.3786L178.988 7.02039H179.992L179.299 10.2768H178.625L179.222 7.68525L177.839 10.2768H177.294L176.977 7.68525L176.486 10.2768H175.807L176.494 7.02039H177.476Z" fill="#194CBB"/>
</svg>
